<svg version="1" xmlns="http://www.w3.org/2000/svg" width="1621.333" height="1621.333" viewBox="0 0 1216.000000 1216.000000"><path d="M1044 .9c0 .6-.8 1.1-1.7 1.1-1 0-2.9.9-4.3 2s-3.2 2-4.2 2c-.9 0-1.8.3-2 .7-.1.5-4.8 3.1-10.3 5.9-5.5 2.8-17 8.7-25.5 13.2-8.5 4.4-20.4 10.6-26.5 13.7-6 3.1-11.6 6.1-12.2 6.7-.7.6-1.3.7-1.3.2 0-.5-.4-.5-.8.1-.4.5-2.5 1.9-4.7 3-2.2 1-4.6 2.4-5.4 2.9-.7.6-2 1.1-2.9 1.2-.8.2-1.9.9-2.3 1.6-.5.7-.9.9-.9.5 0-.5-1.5 0-3.2 1.1-7.9 4.7-18.6 10.1-19.2 9.5-.3-.4-.6-.2-.6.4 0 .6-1.1 1.4-2.5 1.7-1.4.4-2.5 1-2.5 1.5s-1.3 1.2-3 1.6c-1.6.4-3 1.1-3 1.7 0 .6-.3.8-.7.5-.3-.4-1.2-.2-1.8.3-.7.6-7.2 4.1-14.6 7.9-16.2 8.3-33.3 17.2-45.1 23.5-4.9 2.5-8.8 4.3-8.8 3.9 0-.5-.5 0-1.1.9-.5 1-1.8 1.8-2.7 1.8-1 0-2.2.4-2.8.9-.5.5-7.6 4.4-15.9 8.6-8.2 4.3-15.6 8.2-16.2 8.7-.7.6-1.3.7-1.3.4 0-.4-1.2.1-2.7 1.1-1.6 1.1-5.9 3.5-9.8 5.4-3.8 1.9-7.3 3.8-7.7 4.4-.5.7-.8.7-.8 0s-.3-.7-.8 0c-.4.5-1.6 1.5-2.6 2-1.5.9-1.9 2.3-2 6.8-.1 3.1.1 5.7.4 5.7.3 0 .5 1.3.5 3 0 1.6-.3 3-.7 3-.4 0-.3 1.1.2 2.5.6 1.6.6 2.5 0 2.5s-.6.9 0 2.5c.5 1.4.6 2.5.2 2.5-.9 0-.7 6.4.2 7.9.4.5.2 1.2-.4 1.6-.6.4-.7 1.3-.1 2.3.6 1.1.6 2.4 0 3.4-.6 1.1-.6 1.9.1 2.3.7.4.7 1.2 0 2.5s-.7 2.1 0 2.5c.6.4.7 1.2.1 2.3-.5.9-.5 2.6 0 3.9.5 1.4.5 2.3-.1 2.3s-.6.9-.1 2.3c.5 1.3.5 3 .1 3.7-.5.8-.5 1.9 0 2.5.5.6.5 1.7 0 2.5s-.5 2.1.1 3.1c.6 1.1.5 2-.1 2.4-.7.4-.7 1.2 0 2.5s.7 2.1 0 2.5c-.7.4-.7 1.2 0 2.5s.7 2.1 0 2.5c-.6.4-.7 1.3-.1 2.3.6 1.1.6 2.4 0 3.4-.6 1.1-.6 1.9.1 2.3.7.4.7 1.2 0 2.5s-.7 2.1 0 2.5c.6.4.7 1.2.1 2.3-.5.9-.5 2.6 0 3.9.5 1.4.5 2.3-.1 2.3s-.6.9-.1 2.3c.5 1.3.5 3 .1 3.7-.5.8-.5 1.9 0 2.5.5.6.5 1.7 0 2.5-.4.7-.4 2.4.1 3.7.5 1.4.5 2.3-.1 2.3s-.6.9 0 2.5.6 2.5 0 2.5-.6.9 0 2.5.6 2.5 0 2.5-.6.9 0 2.5c.5 1.3.6 2.6.2 2.9-.9.5-.7 7 .2 8.5.4.5.2 1.2-.4 1.6-.7.4-.7 1.2 0 2.5s.7 2.1 0 2.5c-.6.4-.7 1.2-.1 2.3.5.9.5 2.6 0 3.9-.5 1.4-.5 2.3.1 2.3s.6.9.1 2.3c-.5 1.3-.5 3 0 3.9.6 1.1.5 1.9-.1 2.3-.7.4-.7 1.2 0 2.5s.7 2.1 0 2.5c-.7.4-.7 1.2 0 2.5.6 1.2.7 2.1 0 2.5-.6.3-.6 1.5 0 3s.6 2.7 0 3c-.7.4-.6 1.3 0 2.5.7 1.3.7 2.1 0 2.5-.7.4-.7 1.2 0 2.5s.7 2.1 0 2.5c-.7.4-.7 1.2 0 2.5s.7 2.1 0 2.5c-.6.4-.7 1.2-.1 2.3.5.9.5 2.6 0 3.9-.5 1.4-.5 2.3.1 2.3s.6.9.1 2.3c-.5 1.3-.5 3 0 3.9.6 1.1.5 1.9-.1 2.3-.7.4-.7 1.2 0 2.5s.7 2.1 0 2.5c-.7.4-.7 1.2 0 2.5.6 1.2.7 2.1 0 2.5-.6.3-.6 1.5 0 3s.6 2.7 0 3c-.7.4-.6 1.3 0 2.5.7 1.3.7 2.1 0 2.5-.7.4-.7 1.2 0 2.5s.7 2.1 0 2.5c-.7.4-.7 1.2 0 2.5s.7 2.1 0 2.5c-.6.4-.7 1.2-.1 2.3.5.9.5 2.6 0 3.9-.5 1.4-.5 2.3.1 2.3s.6.9.1 2.3c-.5 1.3-.5 3 0 3.9.6 1.1.5 1.9-.1 2.3-.7.4-.7 1.2 0 2.5s.7 2.1 0 2.5c-.7.4-.7 1.2 0 2.5.6 1.2.7 2.1 0 2.5-.6.3-.6 1.5 0 3s.6 2.7 0 3c-.7.4-.6 1.3 0 2.5.7 1.3.7 2.1 0 2.5-.7.4-.7 1.2 0 2.5s.7 2.1 0 2.5c-.7.4-.7 1.2 0 2.5s.7 2.1 0 2.5c-.6.4-.7 1.2-.1 2.3.5.9.5 2.6 0 3.9-.5 1.4-.5 2.3.1 2.3s.6.9.1 2.3c-.5 1.3-.5 3 0 3.9.6 1.1.5 1.9-.1 2.3-.7.4-.7 1.2 0 2.5s.7 2.1 0 2.5c-.7.4-.7 1.2 0 2.5.6 1.2.7 2.1 0 2.5-.6.3-.6 1.5 0 3s.6 2.7 0 3c-.7.4-.6 1.3 0 2.5.7 1.3.7 2.1 0 2.5-.7.4-.7 1.2 0 2.5s.7 2.1 0 2.5c-.7.4-.7 1.2 0 2.5s.7 2.1 0 2.5c-.6.4-.7 1.2-.1 2.3.5.9.5 2.6 0 3.9-.5 1.4-.5 2.3.1 2.3s.6.9.1 2.3c-.5 1.3-.5 3 0 3.9.6 1.1.5 1.9-.1 2.3-.7.4-.7 1.2 0 2.5s.7 2.1 0 2.5c-.7.4-.7 1.2 0 2.5.6 1 .7 2.1.2 2.4-.8.5-.7 8 .2 10.2.3.7.1 1.6-.4 1.9-.7.4-.6 1.3 0 2.5.7 1.3.7 2.1 0 2.5-.7.4-.7 1.2 0 2.5.6 1 .7 2.1.2 2.4-.9.5-.7 6.9.2 8.5.4.5.2 1.2-.4 1.6-.6.4-.7 1.3-.1 2.3.6 1.1.6 2.4 0 3.4-.6 1.1-.6 1.9.1 2.3.7.4.7 1.2 0 2.5s-.7 2.1 0 2.5c.6.4.7 1.2.1 2.3-.5.9-.5 2.6 0 3.9.5 1.4.5 2.3-.1 2.3s-.6.9-.1 2.3c.5 1.3.5 3 .1 3.7-.5.8-.5 1.9 0 2.5.5.6.5 1.7 0 2.5s-.5 2.1.1 3.1c.6 1.1.5 2-.1 2.4-.7.4-.7 1.2 0 2.5s.7 2.1 0 2.5c-.7.4-.7 1.2 0 2.5s.7 2.1 0 2.5c-.6.4-.7 1.3-.1 2.3.6 1.1.6 2.4 0 3.4-.6 1.1-.6 1.9.1 2.3.7.4.7 1.2 0 2.5s-.7 2.1 0 2.5c.6.4.7 1.2.1 2.3-.5.9-.5 2.6 0 3.9.5 1.4.5 2.3-.1 2.3s-.6.9-.1 2.3c.5 1.3.5 3 .1 3.7-.5.8-.5 1.9 0 2.5.5.6.5 1.7 0 2.5s-.5 2.1.1 3.1c.6 1.1.5 2-.1 2.4-.7.4-.7 1.2 0 2.5s.7 2.1 0 2.5c-.7.4-.7 1.2 0 2.5s.7 2.1 0 2.5c-.6.4-.7 1.3-.1 2.3.6 1.1.6 2.4 0 3.4-.6 1.1-.6 1.9.1 2.3.7.4.7 1.2 0 2.5s-.7 2.1 0 2.5c.6.4.7 1.2.1 2.3-.5.9-.5 2.6 0 3.9.5 1.4.5 2.3-.1 2.3s-.6.9-.1 2.3c.5 1.3.5 3 .1 3.7-.5.8-.5 1.9 0 2.5.5.6.5 1.7 0 2.5s-.5 2.1.1 3.1c.6 1.1.5 2-.1 2.4-.7.4-.7 1.2 0 2.5s.7 2.1 0 2.5c-.7.4-.7 1.2 0 2.5s.7 2.1 0 2.5c-.6.4-.7 1.3-.1 2.3.6 1.1.6 2.4 0 3.4-.6 1.1-.6 1.9.1 2.3.7.4.7 1.2 0 2.5s-.7 2.1 0 2.5c.6.4.7 1.2.1 2.3-.5.9-.5 2.6 0 3.9.5 1.4.5 2.3-.1 2.3s-.6.9-.1 2.3c.5 1.3.5 3 .1 3.7-.5.8-.5 1.9 0 2.5.5.6.5 1.7 0 2.5s-.5 2.1.1 3.1c.6 1.1.5 2-.1 2.4-.7.4-.7 1.2 0 2.5s.7 2.1 0 2.5c-.7.4-.7 1.2 0 2.5s.7 2.1 0 2.5c-.6.4-.7 1.3-.1 2.3.6 1.1.6 2.4 0 3.4-.6 1.1-.6 1.9.1 2.3.7.4.7 1.2 0 2.5s-.7 2.1 0 2.5c.6.4.7 1.2.1 2.3-.5.9-.5 2.6 0 3.9.5 1.4.5 2.3-.1 2.3s-.6.9-.1 2.3c.5 1.3.5 3 .1 3.7-.5.8-.5 1.9 0 2.5.5.6.5 1.7 0 2.5-.4.7-.4 2.4.1 3.7.5 1.4.5 2.3-.1 2.3s-.6.9 0 2.5.6 2.5 0 2.5-.6.9 0 2.5.6 2.5 0 2.5-.6.9 0 2.5c.5 1.3.6 2.6.2 2.9-.9.5-.7 7 .2 8.5.4.5.2 1.2-.4 1.6-.7.4-.7 1.2 0 2.5s.7 2.1 0 2.5c-.6.4-.7 1.2-.1 2.3.5.9.5 2.6 0 3.9-.5 1.4-.5 2.3.1 2.3s.6.9.1 2.3c-.5 1.3-.5 3 0 3.9.6 1.1.5 1.9-.1 2.3-.7.4-.7 1.2 0 2.5s.7 2.1 0 2.5c-.7.4-.7 1.2 0 2.5.6 1.2.7 2.1 0 2.5-.6.3-.6 1.5 0 3s.6 2.7 0 3c-.5.3-.7 1.2-.4 2 .4 1-2 2.6-8.1 5.4-4.8 2.3-8.9 4.1-9.1 4.1-.2 0-2.3.9-4.7 2-2.3 1-6.2 2.6-8.7 3.5-2.5.9-7 2.5-10 3.6s-7.7 2.6-10.5 3.4c-2.7.8-9 2.6-14 4-4.9 1.4-10.1 2.7-11.5 2.9-1.4.2-2.5.5-2.5.6 0 .2-1.9.6-7 1.4-2.2.4-4.7.8-5.5 1.1-2.2.6-9.9 1.8-19 3-2.5.3-5.6.8-7 1.1-1.4.2-5.2.7-8.5 1-3.3.3-7.8.7-10 .9-23.8 2.2-76.9 2.4-81.2.3-.4-.2-2.4-.5-4.3-.7-4.5-.3-22.5-3.6-26.2-4.7-.9-.3-2.7-.7-3.9-.9-3.2-.6-14.8-4.4-18.4-6-1.6-.7-5-2.1-7.4-3.1-19.1-7.6-42-25.2-53.9-41.4-5.5-7.5-13.2-20.7-12.5-21.4.4-.3.1-.6-.5-.6-.7 0-1.2-.6-1.2-1.3 0-.6-.6-2.4-1.4-3.8-1.1-2.2-4.2-10.6-5.3-14.4-.1-.6-1-3.5-1.8-6.5-1.7-5.7-1.8-6.1-3.6-14.8-1.1-5.3-1.3-7.6-2.6-22.7-.3-4.4-.7-172.8-.7-374.3-.1-243.5-.4-366.2-1.1-366.2-1 0-6.2 2.6-25 12.5-4.9 2.6-14.4 7.4-21 10.8-6.6 3.3-12.2 6.4-12.3 6.9-.2.4-.9.8-1.5.8-.7 0-4 1.5-7.4 3.3-3.4 1.7-10.6 5.4-16 8.2-5.4 2.7-10 5.3-10.1 5.7-.2.5-1.1.8-2.1.8-.9 0-2.1.4-2.7.9-.5.5-7.4 4.2-15.4 8.3-32.6 16.8-44.6 23.1-45.7 24-.7.6-1.3.7-1.3.3 0-.4-.6-.3-1.2.3-2.4 1.9-30.6 16.4-31.1 16-.2-.2-1.1.3-2 1.1-.9.7-6.8 3.9-12.9 7.1-28.9 14.7-34.3 17.5-34.8 18-.3.3-5.9 3.2-12.5 6.5s-12.3 6.3-12.6 6.8c-.3.5-.8.8-1 .6-.2-.1-2.3.8-4.7 2l-4.3 2.2.4 307.7c.1 169.2.5 308.6.9 309.7.3 1.1.9 6.3 1.3 11.5s.9 10.4 1.2 11.5c.2 1.1.6 3.8.8 6 .2 2.2.6 5.1.8 6.5.2 1.4.8 5 1.2 8 .4 3 .9 6.3 1.1 7.3.2.9.6 2.7.9 3.9.2 1.2.7 4 1.1 6.2.3 2.2 1 4.8 1.4 5.7.5.9.7 1.9.4 2.2-.3.3-.1 2 .5 3.9.6 1.8 2 7.3 3.2 12.3 1.2 4.9 2.8 11 3.6 13.5.8 2.5 1.7 5.5 1.9 6.7.2 1.2.9 3.5 1.5 5 .6 1.6 1.2 3.5 1.4 4.3.5 2 3.5 10.8 5.1 14.5.7 1.6 2.4 6.1 3.8 10 1.5 3.8 3 7.9 3.6 9 .5 1.1 3.4 7.3 6.4 13.8 3.1 6.5 5.6 12.2 5.6 12.7 0 .4.7 1.3 1.5 2s1.3 1.6 1 2c-.3.4.2 1.3 1 2s1.5 1.6 1.5 2.1c0 .8 14.4 25.4 17.3 29.3.4.6 3.9 5.6 7.8 11.1s7.5 10.2 8 10.3c.5.2.9 1 .9 1.7s.3 1.5.8 1.7c.4.2 2 1.9 3.6 3.8 20.4 25 41.7 45.7 66.6 64.3 4.1 3.1 8 6 8.5 6.4 3 2.3 16.5 11.3 17 11.3.4 0 2.1 1 3.8 2.3 4.4 3 6.8 4.5 9.7 5.9 1.4.7 4.4 2.5 6.8 4.1 2.3 1.5 4.2 2.5 4.2 2.1 0-.4.8 0 1.8.8 1.8 1.6 21.3 11.1 30.2 14.8 3 1.3 6 2.7 6.6 3.2.7.5 2 1 3 1.3 1.1.2 3.7 1.1 5.9 2.1s4.7 1.9 5.5 2c.8.2 2.3.7 3.5 1.3 2 1 13.2 5.1 15 5.5 3.9 1 7.1 2 8 2.5.6.3 1.9.7 3 .8 1.1.2 2.7.6 3.5 1 .8.3 2 .7 2.5.8.6.2 3.5 1 6.5 1.9 3 .9 7.1 1.9 9 2.2 1.9.3 4.2 1 5 1.4.8.4 3.5 1.1 6 1.6 5.1.9 5.9 1.1 6.3 1.4.2.2 3.7.8 7.2 1.4 1.1.1 3.6.6 5.5 1.1 1.9.4 4.6.9 6 1.1 1.4.1 2.5.3 2.5.4 0 .3 12.3 2.2 15.3 2.3.6 0 1.2.3 1.2.6s1.5.6 3.3.6c1.7 0 6.1.4 9.7.9 3.6.5 8.3 1 10.5 1.2 2.2.2 5.8.6 8 .8 11.5 1.4 31.3 2.1 60 2.1 36.3-.1 59.2-1.2 83-4 4.2-.4 15.4-1.7 19-2 1.7-.2 3-.4 3-.5 0-.1 3-.6 10.5-1.6 6-.7 9-1.2 12-1.8 1.4-.2 4.1-.7 6-1 6.1-1 15-2.7 22-4.2 1.4-.3 3.6-.7 5-1 1.4-.3 3.3-.7 4.2-1 1-.3 2.8-.7 4-1 3.7-.7 11.7-2.5 21.3-4.9.6-.1 1.7-.4 2.5-.7.8-.3 5.3-1.6 10-2.8 18.5-4.8 47-14.6 70.5-24.1 1.7-.7 3.2-1.3 3.5-1.4.9-.3 4.5-1.8 8-3.3 1.9-.8 3.7-1.6 4-1.7.9-.2 10.4-4.6 14.2-6.5 2-1 3.9-1.6 4.2-1.3.3.4.6.2.6-.4 0-.6 1.2-1.4 2.7-1.8 1.5-.3 3-1 3.3-1.3.3-.4 4.1-2.5 8.5-4.6 4.4-2.2 9.2-4.8 10.8-5.8 1.5-1.1 2.7-1.6 2.7-1.2 0 .4.8.1 1.8-.7.9-.8 3.1-2.1 4.7-2.9 1.7-.8 5.3-2.9 8.2-4.6 2.8-1.8 5.4-3 5.7-2.7.3.4.6.1.6-.5 0-.7.7-1.2 1.5-1.2s1.5-.3 1.5-.8c0-.4 1.2-1.3 2.8-1.9 1.5-.7 7.2-4.2 12.6-7.8 5.4-3.6 10.2-6.5 10.7-6.5s.9-.3.9-.8c0-.4.9-1.2 1.9-1.7 1.1-.6 4.7-2.9 8.1-5.2 3.4-2.4 6.7-4.3 7.2-4.3s.6-.5.3-1c-.3-.6-.1-1 .6-1 2.5 0 16.5-12.7 25.4-23.2 4.1-4.7 11.5-16.1 11.5-17.6 0-.7.3-1.2.8-1.2.4 0 1.3-1.5 2.1-3.3.8-1.7 2.4-5.5 3.7-8.2 2.1-4.8 5-13.1 5.9-17.1.2-1 .8-3.4 1.4-5.2.5-1.8 1-3.3.9-3.5-.1-.6 1.5-10.5 2-12.2.9-3.4 1-939.5.1-940.1-.5-.3-.9 0-.9.5z"/></svg>