<svg width="22" height="16" viewBox="0 0 22 16" fill="none" xmlns="http://www.w3.org/2000/svg">
<path fill-rule="evenodd" clip-rule="evenodd" d="M4.367 2.47668C6.2049 2.23487 8.6087 2 11 2C13.1918 2 15.6487 2.24492 17.5715 2.49332C18.9637 2.67318 20 3.88087 20 5.33831V10.7208C20 12.1601 18.9924 13.3445 17.633 13.5233C15.7951 13.7651 13.3913 14 11 14C8.6087 14 6.2049 13.7651 4.367 13.5233C3.00761 13.3445 2 12.1601 2 10.7208V5.27922C2 3.83985 3.00761 2.65554 4.367 2.47668ZM11 0C8.48982 0 5.99213 0.245624 4.10611 0.493769C1.68464 0.812363 0 2.90513 0 5.27922V10.7208C0 13.0949 1.68463 15.1876 4.10611 15.5062C5.99213 15.7544 8.48981 16 11 16C13.5102 16 16.0079 15.7544 17.8939 15.5062C20.3154 15.1876 22 13.0949 22 10.7208V5.33831C22 2.92945 20.2699 0.825309 17.8277 0.509807C15.8721 0.257165 13.3176 0 11 0ZM14.5 8.86596C14.8094 8.68732 15 8.3572 15 7.99993C15 7.64267 14.8094 7.31254 14.5 7.13391L10 4.53583C9.6906 4.3572 9.3094 4.3572 9 4.53583C8.6906 4.71446 8.5 5.04459 8.5 5.40185V10.598C8.5 10.9553 8.6906 11.2854 9 11.464C9.3094 11.6427 9.6906 11.6427 10 11.464L14.5 8.86596ZM10.5 8.86596V7.13391L12 7.99993L10.5 8.86596Z" fill="#858479"/>
</svg>
