<svg width="94" height="24" viewBox="0 0 94 24" fill="none" xmlns="http://www.w3.org/2000/svg">
<path d="M10 13.2327C9.20758 13.6353 8.26418 13.8365 7.11952 13.8365C5.86166 13.8365 4.35222 13.3963 4.35222 11.2956V0L0 2.25158V11.2579C0 15.3963 2.79246 18.063 7.11952 18.063C9.52205 18.063 11.6353 17.434 13.4089 16.1887C14.0126 15.7988 14.3397 15.1573 14.3397 14.4026V0L10 2.25158V13.2327Z" fill="white"/>
<path d="M24.7296 0.666992C21.7359 0.666992 19.434 1.59781 18.3648 2.40285C17.761 2.85568 17.4465 3.48461 17.4465 4.23933V16.4784L21.7988 18.7299V5.4343C22.5912 5.0821 23.5598 4.906 24.6793 4.906C25.7107 4.906 27.4466 5.2582 27.4466 7.58526V16.4784L31.7988 18.7299V7.47205C31.7988 3.14499 29.2202 0.666992 24.7296 0.666992Z" fill="white"/>
<path d="M58.453 12.0884C57.9875 13.2079 57.019 13.862 55.7737 13.862C53.9875 13.862 52.8806 12.8557 52.7171 11.1199C52.6416 9.76136 52.629 8.54123 52.7171 7.53494C52.868 5.83682 53.9875 4.86826 55.7737 4.86826C56.9938 4.86826 57.9246 5.4972 58.3901 6.64186L58.7045 7.40915L62.541 6.70475V5.8494C62.541 4.7299 61.8995 3.57266 60.6291 2.41543C59.3964 1.24561 57.7485 0.666992 55.736 0.666992C53.6982 0.666992 51.9749 1.28335 50.6039 2.4909C49.2202 3.73619 48.4655 5.34625 48.3649 7.23305C48.2768 8.61671 48.2768 10.0129 48.3649 11.3714C48.4655 13.2457 49.2076 14.8683 50.5913 16.1765C51.9498 17.4343 53.6731 18.0633 55.736 18.0633C57.7611 18.0633 59.4089 17.4847 60.6416 16.3526C61.9624 15.1702 62.6039 14.0381 62.6039 12.8683V12.0129L58.7674 11.3211L58.453 12.0884Z" fill="white"/>
<path d="M76.579 2.4909C75.2456 1.28335 73.5349 0.666992 71.4972 0.666992C69.4972 0.666992 67.7865 1.28335 66.3902 2.51606C65.0066 3.76134 64.2519 5.35883 64.1512 7.23305C64.0632 8.64186 64.0632 10.0004 64.1512 11.3714C64.2519 13.296 65.0066 14.9186 66.4154 16.1891C67.7991 17.4343 69.4972 18.0633 71.4972 18.0633C73.5223 18.0633 75.233 17.4343 76.579 16.1891C77.9878 14.9186 78.7425 13.296 78.8431 11.384C78.9312 10.0004 78.9312 8.64186 78.8431 7.24563C78.7425 5.3211 77.9752 3.72361 76.579 2.4909ZM68.5035 7.53494C68.6167 5.86198 69.7362 4.86826 71.4972 4.86826C73.2708 4.86826 74.3903 5.86198 74.4909 7.53494C74.5664 8.72991 74.5664 9.93746 74.4909 11.0821C74.34 12.818 73.2205 13.862 71.4846 13.862C69.7613 13.862 68.6418 12.8306 68.4909 11.1073C68.4154 9.93746 68.4154 8.72991 68.5035 7.53494Z" fill="white"/>
<path d="M88.8054 7.52236L87.8871 7.29595L86.4658 6.95632C85.0318 6.55381 85.0318 6.21418 85.0318 6.00034C85.0318 5.56009 85.0318 4.81795 86.9815 4.81795C87.6733 4.81795 88.4029 5.04437 89.2079 5.52236L89.9752 5.97519L92.5664 2.74247L91.7488 2.10096C90.5287 1.14498 88.9563 0.666992 87.0695 0.666992C83.2834 0.666992 80.7425 2.8431 80.7425 6.0884C80.7425 7.81167 81.5601 10.0758 85.4469 11.0947C85.623 11.145 85.8871 11.2079 86.34 11.3085C86.6544 11.384 87.057 11.4721 87.5475 11.5853C88.5287 11.8243 89.0318 12.1765 89.0318 12.6293C89.0318 13.6104 88.0004 13.9501 87.0318 13.9501C85.4343 13.9501 84.7676 13.6356 83.7739 12.8809L82.9689 12.2645L80.3777 15.6104L81.145 16.2394C82.6167 17.4469 84.5286 18.0633 86.8431 18.0633C90.7425 18.0633 93.3589 15.8243 93.3589 12.5035C93.3463 10.7677 92.5664 8.49092 88.8054 7.52236Z" fill="white"/>
<path d="M44.8933 0.201172L40.7926 10.4528L37.9121 3.81125L36.3523 0.213751L32.541 2.45275L38.4404 15.8868C37.8492 17.4214 36.9687 18.5157 35.7737 19.2201L33.8744 19.9119L35.3586 24L37.497 23.2201L38.3524 22.7547L38.4027 22.7296C39.9498 21.7987 41.6605 19.4968 42.7549 16.8553L48.7046 2.44017L44.8933 0.201172Z" fill="white"/>
</svg>
